<?xml version="1.0" standalone="no"?>
<!DOCTYPE svg PUBLIC "-//W3C//DTD SVG 20010904//EN"
 "http://www.w3.org/TR/2001/REC-SVG-20010904/DTD/svg10.dtd">
<svg version="1.0" xmlns="http://www.w3.org/2000/svg"
 width="600.000000pt" height="600.000000pt" viewBox="0 0 600.000000 600.000000"
 preserveAspectRatio="xMidYMid meet">
<metadata>
Created by potrace 1.11, written by Peter Selinger 2001-2013
</metadata>
<g transform="translate(0.000000,600.000000) scale(0.100000,-0.100000)"
fill="#000000" stroke="none">
<path d="M3068 5925 c-1 -2 -23 -6 -48 -9 -51 -6 -59 -8 -150 -32 -36 -9 -72
-18 -80 -19 -8 -1 -28 -7 -43 -14 -15 -6 -41 -13 -57 -16 -48 -8 -221 -70
-277 -99 -29 -14 -53 -24 -53 -21 0 3 -9 -3 -21 -14 -12 -11 -34 -25 -50 -31
-16 -7 -29 -16 -29 -21 0 -5 -7 -9 -15 -9 -8 0 -15 -4 -15 -10 0 -5 -5 -10
-10 -10 -15 0 -80 -69 -90 -95 -11 -28 -4 -151 14 -245 7 -34 17 -98 21 -135
5 -45 16 -108 20 -125 3 -8 7 -35 10 -60 3 -25 7 -56 10 -70 3 -14 7 -43 10
-65 3 -22 7 -51 10 -65 8 -40 18 -123 19 -152 1 -16 4 -28 8 -28 3 0 5 -8 4
-17 -2 -10 1 -33 5 -53 4 -19 10 -57 13 -85 4 -27 8 -61 11 -75 5 -32 15 -95
21 -140 7 -58 14 -104 19 -130 3 -14 7 -47 9 -75 3 -27 7 -57 10 -65 2 -8 7
-42 10 -75 4 -33 10 -98 16 -143 5 -46 9 -87 8 -90 -1 -4 2 -23 5 -42 4 -19 9
-55 12 -80 3 -25 7 -55 9 -67 3 -12 7 -46 10 -75 4 -29 8 -64 10 -78 3 -14 7
-52 11 -85 4 -32 8 -62 10 -65 2 -3 6 -36 10 -75 3 -38 8 -72 10 -75 1 -3 5
-32 9 -65 3 -33 8 -71 11 -84 2 -14 7 -45 10 -70 3 -25 7 -55 9 -66 2 -11 7
-45 10 -76 4 -31 9 -67 12 -80 2 -13 6 -45 9 -71 2 -26 6 -55 9 -65 2 -10 7
-43 11 -74 3 -31 7 -65 9 -75 2 -11 7 -46 10 -79 4 -33 9 -67 11 -75 2 -8 6
-42 10 -75 17 -165 19 -170 110 -225 22 -13 42 -27 45 -30 4 -5 156 -81 170
-85 3 -1 27 -12 54 -24 27 -12 50 -20 52 -18 2 1 -3 27 -11 57 -21 79 -20 84
30 108 25 12 47 22 50 22 3 -1 12 6 20 14 8 8 31 24 52 37 21 13 44 29 50 35
7 7 23 21 35 31 13 10 37 35 54 55 l32 36 -4 249 c-5 343 -13 753 -19 973 -3
102 -7 275 -10 385 -5 200 -12 471 -20 745 -2 80 -7 231 -10 335 -15 516 -25
842 -29 893 -1 17 0 36 3 41 6 9 48 15 176 27 93 9 104 15 71 41 -14 11 -23
23 -21 27 3 3 2 4 -1 2 -3 -3 -28 12 -54 32 -27 20 -66 46 -87 57 -21 11 -40
22 -43 25 -16 18 -209 57 -222 45z"/>
<path d="M3443 5533 c-20 -4 -23 -11 -24 -51 -1 -26 -1 -50 0 -54 1 -10 9
-264 16 -498 3 -96 7 -245 10 -330 2 -85 7 -247 10 -360 3 -113 8 -279 10
-370 3 -91 7 -264 10 -385 3 -121 7 -294 10 -385 6 -250 18 -875 17 -958 0
-95 -10 -162 -24 -162 -6 0 -8 -3 -5 -7 15 -15 -79 -126 -98 -116 -5 4 -7 3
-3 -2 8 -8 -40 -55 -84 -82 -16 -10 -28 -21 -28 -25 0 -4 -7 -8 -15 -8 -8 0
-15 -7 -15 -15 0 -8 7 -15 15 -15 7 0 18 -7 23 -16 5 -9 11 -15 13 -14 7 2 44
-13 49 -20 10 -14 129 -69 162 -76 66 -13 218 -5 271 15 15 6 45 29 67 52 l40
42 -5 171 c-5 167 -12 476 -20 826 -2 96 -6 267 -9 380 -3 113 -8 311 -11 440
-3 129 -7 314 -10 410 -3 96 -7 272 -10 390 -6 244 -14 589 -20 825 -2 88 -4
185 -5 216 l0 56 -132 62 c-133 63 -165 73 -205 64z"/>
<path d="M3227 1223 c-2 -5 -34 -102 -72 -218 l-67 -210 -229 0 c-126 1 -229
-2 -229 -5 0 -3 19 -20 43 -36 23 -17 106 -76 183 -132 l142 -102 -18 -58
c-10 -31 -37 -113 -60 -182 -23 -69 -43 -132 -45 -140 -2 -8 -7 -25 -11 -37
-3 -13 -5 -23 -3 -23 2 0 34 22 71 48 198 141 273 197 276 204 7 17 39 6 87
-30 28 -20 73 -53 100 -71 28 -19 52 -38 55 -41 3 -4 29 -22 57 -42 29 -19 50
-38 45 -42 -4 -4 -2 -6 3 -5 6 2 21 -3 33 -10 23 -12 23 -11 17 11 -4 12 -32
98 -62 190 -30 92 -53 169 -52 170 1 2 -3 14 -10 27 -16 29 -22 24 197 181 88
63 158 118 156 121 -2 3 -102 5 -224 4 -147 -1 -223 2 -229 9 -10 13 -44 114
-46 136 0 9 -4 20 -7 26 -4 5 -25 67 -48 137 -23 70 -43 127 -45 127 -2 0 -6
-3 -8 -7z"/>
</g>
</svg>
