<svg id="Layer_1" xmlns="http://www.w3.org/2000/svg" xmlns:xlink="http://www.w3.org/1999/xlink" viewBox="0 0 198.7 76.2"><style>.st1{fill:#fff}.st2{fill:#231f20}.st3{fill:none;stroke:#231f20;stroke-width:.2375;stroke-miterlimit:10}</style><a xlink:href="https://slammin-design.co.uk" target="_blank"><path d="M198.7 62.7c0 7.4-6 13.5-13.5 13.5H13.5C6 76.2 0 70.1 0 62.7V.1c.5 0 199-.2 198.7 0v62.6z" fill="#f30"/><path class="st1" d="M23.2 17.3c-.6 0-1.1.7-1.8 1.6-.7.9-1.2 1.7-1.9 2.9-.6 1-1 2-1.1 2.4s.1.7.2.9c.3.5 1 1 1.5 1.4.6.4 1.4.6 1.8.7l1.4-.8c0-.1-2.1.1-1.5.1s.8.1 1.2-.1c.4-.1.3-.2.5-.4s.3-1.4.2-.9c0 .1 0-.6.3-1.9.2-.8.2-1.1.4-2.1.1-.7.2-1.1.4-1.6.2-.4.3-.7.6-.9.1-.1.4-.1.4-.1 0-.1-.4-.2-.8-.4-.6-.3-1.5-.8-1.8-.8zM37 26.7l1.4.6 1.2-.3-.1-1.2 2.8-.8v-.4c0-.3-.1-.8-.5-2s-.9-2-1.6-2.6c-.8-.6-1.1-.8-1.6-1-.5-.3-1.5-.5-2.2-.5-.9 0-1.6.1-2.7.4-1 .4-2.1 1-2.9 1.7S29.3 22.1 29 23s-.5 1.4-.5 3 .4 2.6.6 3.2c.2.7 1.4 2.3 3 3.4s4.6 3 5.4 4.6c.9 1.6.8 3 .7 3.5 0 .5-.2.8-.7 1.1-.4.3-.9.3-1.3.3-.7-.1-1.3-1.2-1.4-1.7-.1-.5-.1-1.1-.1-1.1l1.1-.3v-.7l-1.3-.9-5 1.8s-.1.4-.1.8c0 .3.4 1.9 1.1 3.1.7 1.1 1.3 1.9 2.5 2.6 1.2.6 2 .9 3.2.9s2.1-.3 3.3-.9c1.1-.6 2.1-1.3 2.9-2.5s1-3 1-4.1c-.1-1.5-.2-2.3-.7-3.7-.3-.8-1-1.8-2.7-3-2-1.4-2.4-1.8-4.1-3.4-1.7-1.5-2.4-2.3-2.4-4.2 0-1.9 1.2-2.2 1.7-2.2s1.3.1 1.6 1.2c.3 1 .3 1.5.3 1.9-.1.4-.1 1-.1 1z"/><path class="st2" d="M39.7 28l1.5.9 5.2-1.6v-.7c0-.5-.2-1.9-.9-2.9-.7-1.1-1.3-1.6-2.4-2.3-1-.6-2-1-2.8-1.4-.4-.2.4.3.9 1 .4.7.9 1.9 1.1 2.7.2.9.2 1.2.2 1.3 0 .2-2.8.6-2.8.8-.3.3 0 2.2 0 2.2z"/><path class="st2" d="M37.8 27c-.2.4-.3 1 0 1.8s.6 1.2 1.7 2.1c1.1.9 2.7 1.9 3.8 2.8 1.1 1 1.9 1.8 2.7 3.2.8 1.3 1.3 3.2 1.3 4.7s-.2 3.1-1.8 4.7c-1.4 1.4-2.3 1.6-3.2 1.9-1.1.3-1.8.4-3.2.3-1.5-.2-1.8-.4-3.1-1.1-1.3-.7-1.8-1.3-1.8-1.3s1.6.6 3.1.2a10 10 0 0 0 4-2c1-.8 1.9-2.7 2-3.8s.2-2.2-.2-4.2c-.3-1.5-1-2.6-2.3-3.5-2-1.6-3-2.1-4.5-3.6s-2.6-2.2-2.7-4c-.1-1.9.6-2.3 1.1-2.5.3-.2 1.1-.3 1.6.2.7.6.7.8.8 2.3.1 1.2 0 1.1 0 1.5-.1 0 .7.3.7.3z"/><path class="st2" d="M38.2 39.4l-1.2-.7-2.4.7s0 .8.3 1.5c.3.8.8 1.4 1.4 1.4.7.1 1.3-.2 1.7-.7.4-.7.2-2 .2-2.2z"/><path class="st1" d="M54.6 20l-1.5-1.1-5 .8 1.7 26.7 1.1 1 1.4-.3-.1-.9 8-1.1v-2l1.1-.2v-.6l-1.4-.9-4.8.9-1.6-21.6h.9z"/><path class="st2" d="M57.4 21.3l-1.4-.9-2.5.3 1.6 21.6 3.5-.6zM52.2 46.2l.2 1.8 1.5.6 10.3-1.2v-3.9l-1.6-.9-2.4.5v2zM75.6 20.1l1.3.7 7.4 26-5 .9-1.4-.9-.6-1.8 2.9-.4-6.9-24.3z"/><path class="st3" d="M71.2 27.2l-.8 9.6 2.7-.3z"/><path class="st2" d="M70.3 40.4l3.4-.6.8 2.7-.8 5.8-4.9.9-1.7-.9.1-1.8 2.4-.3zM88.8 46.7l.1 1.6 1.5.9 3.6-.5v-2.3l-.5-.4-4.4-18.2 1.1 18.8zM95.7 45.8l.4 1.6 1.5.9 3.7-.5.3-2-1-.8-1.4-18.6-1.8 19.1zM103.1 44.6v1.8l1.5.9 3.9-.6-1.9-26.8-1.4-.8-2.5.3 1.7 25zM91.3 21l3.5 16.3 1.1-11.5-1.1-4.3-1.4-.7zM141.3 18.6l1.6-.2 2.3 1.1.5 21.9s.1.2-.4.7-.6.7-1.5.8-1.5.1-2.1-.3c-.7-.4-1.7-1-1.7-1l-.2-.8s1.4-.8.9-.5c0 0 .9-.7 1-.9.1-.3-.1-7.3-.1-8 0-.7-.3-12.8-.3-12.8zM152.5 21.1l1.5-.3 1.7.9 2.1 4.1.3 6.6zM153.1 31.5l4.5 9.4.4 7.3-4.3.9-1.5-.9-.2-1.7 2.1-.3zM161.9 19.8l2.1-.3 1.5.7 1.9 26.8-3.5.5-1.5-.8-1-1.7 2.1-.2z"/><path class="st1" d="M170.1 26.2l2.6 1.4s.1-.6.4-1.2c.3-.6 1.1-1.6 1.8-2.5.9-1.3 1.8-1.8 2-3.5.1-.8-.1-1.3-.4-1.5-.5-.4-1-.6-1.5-.8-.8-.3-2.2-.7-3 .3-.7.9-.7 2.6-.9 3.4-.4.7-1 4.4-1 4.4zM141.3 44l.8 2.5h2.6l-2.1 1.5.8 2.6-2.1-1.6-2.2 1.6.8-2.6-2.1-1.5h2.6zM163 19l-1.3-.9-4.4.7.8 13.6-5.6-11.3.6-.1v-.6l-1.5-.9-3.7.5 1.7 26.6 1.3 1 1.2-.3-.1-.8 2.1-.3-1.1-14.9 6.8 13.7 1.3 1.2.9-.2-.6-1 2.1-.2-1.6-25 1-.2z"/><path class="st2" d="M176 29.3s1.4-1.5 2.3-2.9c.9-1.4 1.7-2.8 2-3.5.2-.7.3-.8 0-1.4s-.6-.8-1.4-1.3c-.8-.5-2.2-1.1-2.4-1.1 0 0 .4.3.2 1.3-.1.9-.1.9-1 2.1s-1.2 1.5-1.7 2.2c-.5.6-1.6 2.5-1.4 3 .1.1 3.4 1.6 3.4 1.6z"/><path class="st1" d="M142.9 18.5c-.5-.5-1.3-1.1-2.1-1.2s-1.5.2-2 .3c-.5.1-1.6.4-2.3.8s-1.4.8-1.5 1.2c-.1.4.1 1.3.1 1.8 0 .3 1.1 7.1 1.2 8.5.1 1.4 1.4 9.9 1.4 10.4s2.1 1.3 2.4 1.5l-.2-.8s1.1-.5 1.6-1.1c.4-.4.3 0 .3-2.2 0-2.5 0-3.2-.2-9-.1-2.8-.3-9.5-.3-9.8 0 0 .2 0 .8-.1.7-.3.8-.3.8-.3z"/><path class="st2" d="M141.3 44l2 1 .3 1.5h-1.5zM144.7 46.5l1.4 1-1.7 1.7.9 2.2-1.9-.8-.8-2.6zM141.3 49l-2.2 1.6 2.1 1.4 1.8-1.7z"/><path class="st1" d="M87.5 47.7l-1.3-.9-1.5-26.5 5.9-1 1.6 1 .1.6-1 .1 3.5 16.2 1.9-18.5 5.9-1 1.3.9.1.6-1.3.2 1.7 25-1.3.2v1l-1.5.2-1-.8-1.4-18.6-1.8 19.1-1.7.3.2.9h-1.5l-.9-.7-4.4-18.2 1.1 18.8-1.4.1.1.9zM74.4 19.5l-1.8-.8-4.2.7-3.8 27.3 1.2 1.1 1.3-.5.1-.8 2.4-.3.7-5.8 3.4-.6 1.5 5.4 1 1h1.5l-.4-1.2 2.9-.4-6.9-24.3 1.2-.1z"/><path class="st2" d="M71.2 26.5l-.8 10.3 2.7-.3zM114.4 46.8l.2 1.6 1.4.9 3.6-.4v-2.4l-.4-.4-4.4-18.1 1 18.8zM121.3 46l.4 1.5 1.6.9 3.6-.4.3-2.1-1-.7-1.4-18.7-1.8 19.2zM134.1 46.8l-1.8-26.7-1.4-.9-2.5.4 1.6 25-1.3.1.1 1.8 1.4 1 3.9-.7M117 21.2l3.4 16.2 1.2-11.5-1.2-4.2-1.3-.7z"/><path class="st1" d="M110.3 20.5l6-1 1.6 1v.6l-.9.1 3.4 16.1 2-18.4 5.8-1 1.4.8v.7l-1.2.2 1.6 25-1.3.1.1 1-1.6.2-1-.7-1.4-18.7-1.8 19.2-1.7.3.2.8h-1.4l-.9-.7-4.4-18.1 1 18.8h-1.4l.1 1-1.3.1-1.3-1-1.6-26.4"/><path class="st2" d="M25.6 18.6c.2 0 .3.1.5.2.6.2 2.4 1 2.7 1.5.2.4-.3 2.3-.7 4.5-.3 1.7-.7 2.9-1.1 3.3-.3.3-1.1.7-2.2.6-1-.1-1.4-.4-2.3-.8-1.2-.5-1-.4-1.3-.8 0-.1.8 0 1.7-.6.6-.4.6-.7.9-2.1.3-1.6.7-4.8 1.2-5.3.1-.3.4-.5.6-.5z"/><path class="st1" d="M114.3 65.3H112v-6.2h2.3c.9 0 1.6.3 2.2.8.6.6.8 1.3.8 2.3 0 .9-.3 1.7-.8 2.3-.6.6-1.3.8-2.2.8zm0-5h-1.2v4h1.2c.6 0 1-.2 1.3-.5.3-.4.5-.8.5-1.5 0-.6-.2-1.1-.5-1.5s-.7-.5-1.3-.5zM126.7 65.3h-4v-6.2h3.9v1.1h-2.8v1.3h2.1v1.1h-2.1v1.6h2.9v1.1zM133.9 65.5c-.4 0-.8 0-1.2-.1s-.6-.2-.8-.3l.1-1.3c.2.2.4.3.8.5.3.1.7.2 1.1.2.7 0 1.1-.2 1.1-.7 0-.1 0-.2-.1-.3s-.1-.2-.2-.2c-.1-.1-.2-.1-.3-.2-.2-.1-.3-.1-.4-.2-.1 0-.2-.1-.4-.2s-.3-.1-.4-.1l-.4-.1c-.2-.1-.3-.1-.4-.2-.1 0-.2-.1-.3-.2-.1-.1-.2-.2-.2-.3-.1-.1-.1-.2-.1-.3s-.1-.3-.1-.4c0-.5.2-.9.5-1.3.4-.4.9-.6 1.7-.6.4 0 .8.1 1.1.2.4.1.6.2.8.3l-.1 1.2c-.7-.4-1.3-.6-1.8-.6-.3 0-.6 0-.8.1s-.3.3-.3.5.1.4.3.5.5.2 1 .4c.2.1.4.1.5.2.1 0 .3.1.5.2s.4.2.5.2l.3.3c.1.1.2.3.3.5s.1.4.1.6v.5c0 .1-.1.3-.2.5s-.2.3-.4.4-.4.2-.7.3c-.4-.1-.7 0-1.1 0zM142.7 65.3h-1.1v-6.2h1.1v6.2zM151.1 65.5c-.9 0-1.6-.3-2.2-.9-.6-.6-.8-1.4-.8-2.3 0-1 .3-1.7.9-2.3.6-.6 1.3-.9 2.2-.9.3 0 .6 0 1 .1s.6.2.9.3l-.1 1.1c-.6-.2-1.1-.4-1.7-.4-.6 0-1.1.2-1.4.6-.3.4-.5.9-.5 1.5s.2 1.2.5 1.6.8.6 1.4.6c.3 0 .5 0 .8-.1v-1.1h-.7v-.9h1.8V65c-.2.1-.5.2-1 .3-.3.1-.7.2-1.1.2zM163.6 65.3h-.9l-2.8-4.2v4.2h-1.1v-6.2h1.1l2.6 4v-4h1.1v6.2z"/></a></svg>